<svg width="162" height="28" viewBox="0 0 162 28" fill="none" xmlns="http://www.w3.org/2000/svg">
<path d="M0.208047 21V0.839999H3.24605L10.218 15.12L17.19 0.839999H20.228V21H17.078V8.078L10.89 21H9.54605L3.37205 8.078V21H0.208047ZM25.6492 27.72L28.5612 19.726L28.6172 22.078L22.0232 5.88H25.5372L30.2132 17.864H29.3172L33.8672 5.88H37.2412L28.8132 27.72H25.6492ZM43.9346 21V0.839999H52.2646C52.4606 0.839999 52.7126 0.849332 53.0206 0.867999C53.3286 0.877333 53.6133 0.905333 53.8746 0.951999C55.0413 1.12933 56.0026 1.51667 56.7586 2.114C57.5239 2.71133 58.0886 3.46733 58.4526 4.382C58.8259 5.28733 59.0126 6.29533 59.0126 7.406C59.0126 8.50733 58.8259 9.51533 58.4526 10.43C58.0793 11.3353 57.5099 12.0867 56.7446 12.684C55.9886 13.2813 55.0319 13.6687 53.8746 13.846C53.6133 13.8833 53.3239 13.9113 53.0066 13.93C52.6986 13.9487 52.4513 13.958 52.2646 13.958H47.3086V21H43.9346ZM47.3086 10.808H52.1246C52.3113 10.808 52.5213 10.7987 52.7546 10.78C52.9879 10.7613 53.2026 10.724 53.3986 10.668C53.9586 10.528 54.3973 10.2807 54.7146 9.926C55.0413 9.57133 55.2699 9.17 55.4006 8.722C55.5406 8.274 55.6106 7.83533 55.6106 7.406C55.6106 6.97667 55.5406 6.538 55.4006 6.09C55.2699 5.63267 55.0413 5.22667 54.7146 4.872C54.3973 4.51733 53.9586 4.27 53.3986 4.13C53.2026 4.074 52.9879 4.04133 52.7546 4.032C52.5213 4.01333 52.3113 4.004 52.1246 4.004H47.3086V10.808ZM61.3174 21V5.88H64.2994V9.562L63.9354 9.086C64.1221 8.582 64.3694 8.12467 64.6774 7.714C64.9948 7.294 65.3728 6.94867 65.8114 6.678C66.1848 6.426 66.5954 6.23 67.0434 6.09C67.5008 5.94067 67.9674 5.852 68.4434 5.824C68.9194 5.78667 69.3814 5.80533 69.8294 5.88V9.03C69.3814 8.89933 68.8634 8.85733 68.2754 8.904C67.6968 8.95067 67.1741 9.114 66.7074 9.394C66.2408 9.646 65.8581 9.968 65.5594 10.36C65.2701 10.752 65.0554 11.2 64.9154 11.704C64.7754 12.1987 64.7054 12.7353 64.7054 13.314V21H61.3174ZM78.4056 21.42C76.8936 21.42 75.5729 21.0793 74.4436 20.398C73.3142 19.7167 72.4369 18.7787 71.8116 17.584C71.1956 16.38 70.8876 14.9987 70.8876 13.44C70.8876 11.8533 71.2049 10.4627 71.8396 9.268C72.4742 8.07333 73.3562 7.14 74.4856 6.468C75.6149 5.796 76.9216 5.46 78.4056 5.46C79.9269 5.46 81.2522 5.80067 82.3816 6.482C83.5109 7.16333 84.3882 8.106 85.0136 9.31C85.6389 10.5047 85.9516 11.8813 85.9516 13.44C85.9516 15.008 85.6342 16.394 84.9996 17.598C84.3742 18.7927 83.4969 19.7307 82.3676 20.412C81.2382 21.084 79.9176 21.42 78.4056 21.42ZM78.4056 18.256C79.7496 18.256 80.7482 17.808 81.4016 16.912C82.0549 16.016 82.3816 14.8587 82.3816 13.44C82.3816 11.9747 82.0502 10.808 81.3876 9.94C80.7249 9.06267 79.7309 8.624 78.4056 8.624C77.5002 8.624 76.7536 8.82933 76.1656 9.24C75.5869 9.64133 75.1576 10.206 74.8776 10.934C74.5976 11.6527 74.4576 12.488 74.4576 13.44C74.4576 14.9053 74.7889 16.0767 75.4516 16.954C76.1236 17.822 77.1082 18.256 78.4056 18.256ZM94.5982 21.42C93.2075 21.42 91.9942 21.07 90.9582 20.37C89.9222 19.67 89.1195 18.718 88.5502 17.514C87.9808 16.31 87.6962 14.952 87.6962 13.44C87.6962 11.9093 87.9808 10.5467 88.5502 9.352C89.1288 8.148 89.9455 7.20067 91.0002 6.51C92.0548 5.81 93.2962 5.46 94.7242 5.46C96.1615 5.46 97.3655 5.81 98.3362 6.51C99.3162 7.20067 100.058 8.148 100.562 9.352C101.066 10.556 101.318 11.9187 101.318 13.44C101.318 14.9427 101.066 16.3007 100.562 17.514C100.058 18.718 99.3068 19.67 98.3082 20.37C97.3095 21.07 96.0728 21.42 94.5982 21.42ZM95.1162 18.396C96.0215 18.396 96.7495 18.1907 97.3002 17.78C97.8602 17.36 98.2662 16.7767 98.5182 16.03C98.7795 15.2833 98.9102 14.42 98.9102 13.44C98.9102 12.4507 98.7795 11.5873 98.5182 10.85C98.2662 10.1033 97.8695 9.52467 97.3282 9.114C96.7868 8.694 96.0868 8.484 95.2282 8.484C94.3228 8.484 93.5762 8.708 92.9882 9.156C92.4002 9.59467 91.9662 10.192 91.6862 10.948C91.4062 11.6947 91.2662 12.5253 91.2662 13.44C91.2662 14.364 91.4015 15.204 91.6722 15.96C91.9522 16.7067 92.3768 17.2993 92.9462 17.738C93.5155 18.1767 94.2388 18.396 95.1162 18.396ZM98.9102 21V10.388H98.4902V0.839999H101.892V21H98.9102ZM110.987 21.434C109.867 21.434 108.943 21.2473 108.215 20.874C107.487 20.5007 106.909 20.0247 106.479 19.446C106.05 18.8673 105.733 18.2513 105.527 17.598C105.322 16.9447 105.187 16.3287 105.121 15.75C105.065 15.162 105.037 14.686 105.037 14.322V5.88H108.453V13.16C108.453 13.6267 108.486 14.154 108.551 14.742C108.617 15.3207 108.766 15.8807 108.999 16.422C109.242 16.954 109.597 17.3927 110.063 17.738C110.539 18.0833 111.179 18.256 111.981 18.256C112.411 18.256 112.835 18.186 113.255 18.046C113.675 17.906 114.053 17.668 114.389 17.332C114.735 16.9867 115.01 16.5153 115.215 15.918C115.421 15.3207 115.523 14.5647 115.523 13.65L117.525 14.504C117.525 15.792 117.273 16.9587 116.769 18.004C116.275 19.0493 115.542 19.8847 114.571 20.51C113.601 21.126 112.406 21.434 110.987 21.434ZM115.929 21V16.31H115.523V5.88H118.911V21H115.929ZM128.911 21.42C127.352 21.42 126.022 21.0747 124.921 20.384C123.819 19.684 122.975 18.732 122.387 17.528C121.808 16.324 121.514 14.9613 121.505 13.44C121.514 11.8907 121.817 10.5187 122.415 9.324C123.021 8.12 123.88 7.17733 124.991 6.496C126.101 5.80533 127.422 5.46 128.953 5.46C130.67 5.46 132.121 5.894 133.307 6.762C134.501 7.62067 135.281 8.79667 135.645 10.29L132.285 11.2C132.023 10.388 131.589 9.758 130.983 9.31C130.376 8.85267 129.685 8.624 128.911 8.624C128.033 8.624 127.31 8.834 126.741 9.254C126.171 9.66467 125.751 10.234 125.481 10.962C125.21 11.69 125.075 12.516 125.075 13.44C125.075 14.8773 125.397 16.0393 126.041 16.926C126.685 17.8127 127.641 18.256 128.911 18.256C129.807 18.256 130.511 18.0507 131.025 17.64C131.547 17.2293 131.939 16.6367 132.201 15.862L135.645 16.632C135.178 18.172 134.361 19.3573 133.195 20.188C132.028 21.0093 130.6 21.42 128.911 21.42ZM146.812 21C145.814 21.1867 144.834 21.266 143.872 21.238C142.92 21.2193 142.066 21.0467 141.31 20.72C140.554 20.384 139.98 19.8567 139.588 19.138C139.243 18.4847 139.061 17.8173 139.042 17.136C139.024 16.4547 139.014 15.6847 139.014 14.826V1.68H142.374V14.63C142.374 15.2367 142.379 15.7687 142.388 16.226C142.407 16.6833 142.505 17.0567 142.682 17.346C143.018 17.906 143.555 18.2187 144.292 18.284C145.03 18.3493 145.87 18.312 146.812 18.172V21ZM136.27 8.526V5.88H146.812V8.526H136.27ZM155.402 21.42C153.535 21.42 152.018 21 150.852 20.16C149.685 19.32 148.976 18.1393 148.724 16.618L152.168 16.086C152.345 16.8327 152.737 17.4207 153.344 17.85C153.95 18.2793 154.716 18.494 155.64 18.494C156.452 18.494 157.077 18.3353 157.516 18.018C157.964 17.6913 158.188 17.248 158.188 16.688C158.188 16.3427 158.104 16.0673 157.936 15.862C157.777 15.6473 157.422 15.442 156.872 15.246C156.321 15.05 155.476 14.8027 154.338 14.504C153.068 14.168 152.06 13.8087 151.314 13.426C150.567 13.034 150.03 12.572 149.704 12.04C149.377 11.508 149.214 10.864 149.214 10.108C149.214 9.16533 149.461 8.344 149.956 7.644C150.45 6.944 151.141 6.40733 152.028 6.034C152.914 5.65133 153.96 5.46 155.164 5.46C156.34 5.46 157.38 5.642 158.286 6.006C159.2 6.37 159.938 6.888 160.498 7.56C161.058 8.232 161.403 9.02067 161.534 9.926L158.09 10.542C158.006 9.898 157.712 9.38933 157.208 9.016C156.713 8.64267 156.05 8.43267 155.22 8.386C154.426 8.33933 153.787 8.46067 153.302 8.75C152.816 9.03 152.574 9.42667 152.574 9.94C152.574 10.2293 152.672 10.4767 152.868 10.682C153.064 10.8873 153.456 11.0927 154.044 11.298C154.641 11.5033 155.528 11.7553 156.704 12.054C157.908 12.362 158.869 12.7167 159.588 13.118C160.316 13.51 160.838 13.9813 161.156 14.532C161.482 15.0827 161.646 15.75 161.646 16.534C161.646 18.0553 161.09 19.25 159.98 20.118C158.878 20.986 157.352 21.42 155.402 21.42Z" fill="#DEDEDE"/>
</svg>
